<mxfile host="app.diagrams.net" modified="2024-02-22T19:02:05.338Z" agent="Mozilla/5.0 (Windows NT 10.0; Win64; x64) AppleWebKit/537.36 (KHTML, like Gecko) Chrome/121.0.0.0 Safari/537.36" etag="qkkEh65CCXG8gH7Tqh6q" version="23.1.5" type="device">
  <diagram name="Page-1" id="A9ut1E8yz_9eZytg9AyY">
    <mxGraphModel dx="2367" dy="580" grid="1" gridSize="10" guides="1" tooltips="1" connect="1" arrows="1" fold="1" page="0" pageScale="1" pageWidth="850" pageHeight="1100" math="0" shadow="0">
      <root>
        <mxCell id="0" />
        <mxCell id="1" parent="0" />
        <mxCell id="-l0ttiXzIQIXAGMdB7XS-6" style="edgeStyle=orthogonalEdgeStyle;rounded=0;orthogonalLoop=1;jettySize=auto;html=1;entryX=0;entryY=0.5;entryDx=0;entryDy=0;" parent="1" source="-l0ttiXzIQIXAGMdB7XS-3" target="-l0ttiXzIQIXAGMdB7XS-5" edge="1">
          <mxGeometry relative="1" as="geometry" />
        </mxCell>
        <mxCell id="-l0ttiXzIQIXAGMdB7XS-3" value="&lt;font style=&quot;font-size: 24px;&quot;&gt;Start&lt;/font&gt;" style="shape=ellipse;html=1;dashed=0;whiteSpace=wrap;aspect=fixed;perimeter=ellipsePerimeter;" parent="1" vertex="1">
          <mxGeometry x="-720" y="200" width="120" height="120" as="geometry" />
        </mxCell>
        <mxCell id="-l0ttiXzIQIXAGMdB7XS-9" style="edgeStyle=orthogonalEdgeStyle;rounded=0;orthogonalLoop=1;jettySize=auto;html=1;" parent="1" source="-l0ttiXzIQIXAGMdB7XS-5" target="-l0ttiXzIQIXAGMdB7XS-8" edge="1">
          <mxGeometry relative="1" as="geometry" />
        </mxCell>
        <mxCell id="-l0ttiXzIQIXAGMdB7XS-5" value="&lt;font style=&quot;font-size: 24px;&quot;&gt;classDec1&lt;/font&gt;" style="shape=ellipse;html=1;dashed=0;whiteSpace=wrap;aspect=fixed;perimeter=ellipsePerimeter;" parent="1" vertex="1">
          <mxGeometry x="-480" y="200" width="120" height="120" as="geometry" />
        </mxCell>
        <mxCell id="-l0ttiXzIQIXAGMdB7XS-7" value="&lt;font style=&quot;font-size: 18px;&quot;&gt;class&lt;/font&gt;" style="text;html=1;strokeColor=none;fillColor=none;align=center;verticalAlign=middle;whiteSpace=wrap;rounded=0;" parent="1" vertex="1">
          <mxGeometry x="-580" y="210" width="70" height="40" as="geometry" />
        </mxCell>
        <mxCell id="-l0ttiXzIQIXAGMdB7XS-14" style="edgeStyle=orthogonalEdgeStyle;rounded=0;orthogonalLoop=1;jettySize=auto;html=1;entryX=0;entryY=0.5;entryDx=0;entryDy=0;" parent="1" source="-l0ttiXzIQIXAGMdB7XS-8" target="-l0ttiXzIQIXAGMdB7XS-13" edge="1">
          <mxGeometry relative="1" as="geometry" />
        </mxCell>
        <mxCell id="-l0ttiXzIQIXAGMdB7XS-8" value="&lt;font style=&quot;font-size: 24px;&quot;&gt;classDec2&lt;/font&gt;" style="shape=ellipse;html=1;dashed=0;whiteSpace=wrap;aspect=fixed;perimeter=ellipsePerimeter;" parent="1" vertex="1">
          <mxGeometry x="-240" y="200" width="120" height="120" as="geometry" />
        </mxCell>
        <mxCell id="-l0ttiXzIQIXAGMdB7XS-10" value="&lt;font style=&quot;font-size: 18px;&quot;&gt;identifier&lt;/font&gt;" style="text;html=1;strokeColor=none;fillColor=none;align=center;verticalAlign=middle;whiteSpace=wrap;rounded=0;" parent="1" vertex="1">
          <mxGeometry x="-330" y="220" width="70" height="40" as="geometry" />
        </mxCell>
        <mxCell id="-l0ttiXzIQIXAGMdB7XS-23" style="edgeStyle=orthogonalEdgeStyle;rounded=0;orthogonalLoop=1;jettySize=auto;html=1;entryX=0;entryY=0.5;entryDx=0;entryDy=0;" parent="1" source="-l0ttiXzIQIXAGMdB7XS-13" target="-l0ttiXzIQIXAGMdB7XS-22" edge="1">
          <mxGeometry relative="1" as="geometry" />
        </mxCell>
        <mxCell id="-l0ttiXzIQIXAGMdB7XS-27" style="edgeStyle=orthogonalEdgeStyle;rounded=0;orthogonalLoop=1;jettySize=auto;html=1;exitX=0;exitY=1;exitDx=0;exitDy=0;entryX=0.5;entryY=0;entryDx=0;entryDy=0;" parent="1" source="-l0ttiXzIQIXAGMdB7XS-13" target="-l0ttiXzIQIXAGMdB7XS-26" edge="1">
          <mxGeometry relative="1" as="geometry">
            <Array as="points">
              <mxPoint x="18" y="380" />
              <mxPoint x="-740" y="380" />
            </Array>
          </mxGeometry>
        </mxCell>
        <mxCell id="-l0ttiXzIQIXAGMdB7XS-31" style="edgeStyle=orthogonalEdgeStyle;rounded=0;orthogonalLoop=1;jettySize=auto;html=1;exitX=1;exitY=1;exitDx=0;exitDy=0;entryX=0.5;entryY=0;entryDx=0;entryDy=0;" parent="1" source="-l0ttiXzIQIXAGMdB7XS-13" target="-l0ttiXzIQIXAGMdB7XS-25" edge="1">
          <mxGeometry relative="1" as="geometry">
            <Array as="points">
              <mxPoint x="102" y="380" />
              <mxPoint x="1220" y="380" />
            </Array>
          </mxGeometry>
        </mxCell>
        <mxCell id="-l0ttiXzIQIXAGMdB7XS-13" value="&lt;font style=&quot;font-size: 24px;&quot;&gt;classDec3&lt;/font&gt;" style="shape=ellipse;html=1;dashed=0;whiteSpace=wrap;aspect=fixed;perimeter=ellipsePerimeter;" parent="1" vertex="1">
          <mxGeometry y="200" width="120" height="120" as="geometry" />
        </mxCell>
        <mxCell id="-l0ttiXzIQIXAGMdB7XS-15" value="&lt;font style=&quot;font-size: 18px;&quot;&gt;{&lt;/font&gt;" style="text;html=1;strokeColor=none;fillColor=none;align=center;verticalAlign=middle;whiteSpace=wrap;rounded=0;" parent="1" vertex="1">
          <mxGeometry x="-100" y="220" width="70" height="40" as="geometry" />
        </mxCell>
        <mxCell id="-l0ttiXzIQIXAGMdB7XS-22" value="&lt;font style=&quot;font-size: 18px;&quot;&gt;Done&lt;/font&gt;" style="shape=ellipse;html=1;dashed=0;whiteSpace=wrap;aspect=fixed;strokeWidth=5;perimeter=ellipsePerimeter;" parent="1" vertex="1">
          <mxGeometry x="200" y="200" width="120" height="120" as="geometry" />
        </mxCell>
        <mxCell id="-l0ttiXzIQIXAGMdB7XS-24" value="&lt;font style=&quot;font-size: 18px;&quot;&gt;}&lt;/font&gt;" style="text;html=1;strokeColor=none;fillColor=none;align=center;verticalAlign=middle;whiteSpace=wrap;rounded=0;" parent="1" vertex="1">
          <mxGeometry x="120" y="220" width="70" height="40" as="geometry" />
        </mxCell>
        <mxCell id="-l0ttiXzIQIXAGMdB7XS-84" style="edgeStyle=orthogonalEdgeStyle;rounded=0;orthogonalLoop=1;jettySize=auto;html=1;exitX=0;exitY=0.5;exitDx=0;exitDy=0;entryX=1;entryY=0.5;entryDx=0;entryDy=0;" parent="1" source="-l0ttiXzIQIXAGMdB7XS-25" target="-l0ttiXzIQIXAGMdB7XS-63" edge="1">
          <mxGeometry relative="1" as="geometry" />
        </mxCell>
        <mxCell id="-l0ttiXzIQIXAGMdB7XS-25" value="&lt;font style=&quot;font-size: 14px;&quot;&gt;subroutineDec1&lt;/font&gt;" style="shape=ellipse;html=1;dashed=0;whiteSpace=wrap;aspect=fixed;perimeter=ellipsePerimeter;" parent="1" vertex="1">
          <mxGeometry x="1160" y="440" width="120" height="120" as="geometry" />
        </mxCell>
        <mxCell id="-l0ttiXzIQIXAGMdB7XS-46" style="edgeStyle=orthogonalEdgeStyle;rounded=0;orthogonalLoop=1;jettySize=auto;html=1;exitX=1;exitY=0.5;exitDx=0;exitDy=0;entryX=0;entryY=0.5;entryDx=0;entryDy=0;" parent="1" source="-l0ttiXzIQIXAGMdB7XS-26" target="-l0ttiXzIQIXAGMdB7XS-33" edge="1">
          <mxGeometry relative="1" as="geometry" />
        </mxCell>
        <mxCell id="-l0ttiXzIQIXAGMdB7XS-26" value="&lt;font style=&quot;font-size: 18px;&quot;&gt;classVarDec1&lt;/font&gt;" style="shape=ellipse;html=1;dashed=0;whiteSpace=wrap;aspect=fixed;perimeter=ellipsePerimeter;" parent="1" vertex="1">
          <mxGeometry x="-800" y="440" width="120" height="120" as="geometry" />
        </mxCell>
        <mxCell id="-l0ttiXzIQIXAGMdB7XS-29" value="&lt;font style=&quot;font-size: 18px;&quot;&gt;static, field&lt;/font&gt;" style="text;html=1;strokeColor=none;fillColor=none;align=center;verticalAlign=middle;whiteSpace=wrap;rounded=0;" parent="1" vertex="1">
          <mxGeometry x="-810" y="390" width="70" height="40" as="geometry" />
        </mxCell>
        <mxCell id="-l0ttiXzIQIXAGMdB7XS-32" value="&lt;font style=&quot;&quot;&gt;&lt;font style=&quot;font-size: 14px;&quot;&gt;constructor,&lt;br&gt;function,&lt;br&gt;method&lt;/font&gt;&lt;br&gt;&lt;/font&gt;" style="text;html=1;strokeColor=none;fillColor=none;align=center;verticalAlign=middle;whiteSpace=wrap;rounded=0;" parent="1" vertex="1">
          <mxGeometry x="1070" y="330" width="140" height="40" as="geometry" />
        </mxCell>
        <mxCell id="-l0ttiXzIQIXAGMdB7XS-47" style="edgeStyle=orthogonalEdgeStyle;rounded=0;orthogonalLoop=1;jettySize=auto;html=1;exitX=1;exitY=0.5;exitDx=0;exitDy=0;entryX=0;entryY=0.5;entryDx=0;entryDy=0;" parent="1" source="-l0ttiXzIQIXAGMdB7XS-33" target="-l0ttiXzIQIXAGMdB7XS-39" edge="1">
          <mxGeometry relative="1" as="geometry" />
        </mxCell>
        <mxCell id="-l0ttiXzIQIXAGMdB7XS-33" value="&lt;font style=&quot;font-size: 18px;&quot;&gt;classVarDec2&lt;/font&gt;" style="shape=ellipse;html=1;dashed=0;whiteSpace=wrap;aspect=fixed;perimeter=ellipsePerimeter;" parent="1" vertex="1">
          <mxGeometry x="-560" y="440" width="120" height="120" as="geometry" />
        </mxCell>
        <mxCell id="-l0ttiXzIQIXAGMdB7XS-35" value="&lt;font style=&quot;font-size: 18px;&quot;&gt;int, char,&lt;br&gt;boolean,&lt;br&gt;identifier&lt;br&gt;&lt;/font&gt;" style="text;html=1;strokeColor=none;fillColor=none;align=center;verticalAlign=middle;whiteSpace=wrap;rounded=0;" parent="1" vertex="1">
          <mxGeometry x="-650" y="450" width="70" height="40" as="geometry" />
        </mxCell>
        <mxCell id="-l0ttiXzIQIXAGMdB7XS-51" style="edgeStyle=orthogonalEdgeStyle;rounded=0;orthogonalLoop=1;jettySize=auto;html=1;exitX=1;exitY=0.5;exitDx=0;exitDy=0;entryX=0.5;entryY=1;entryDx=0;entryDy=0;" parent="1" source="-l0ttiXzIQIXAGMdB7XS-39" target="-l0ttiXzIQIXAGMdB7XS-13" edge="1">
          <mxGeometry relative="1" as="geometry" />
        </mxCell>
        <mxCell id="-l0ttiXzIQIXAGMdB7XS-54" style="edgeStyle=orthogonalEdgeStyle;rounded=0;orthogonalLoop=1;jettySize=auto;html=1;exitX=0.5;exitY=1;exitDx=0;exitDy=0;entryX=0.5;entryY=0;entryDx=0;entryDy=0;" parent="1" source="-l0ttiXzIQIXAGMdB7XS-39" target="-l0ttiXzIQIXAGMdB7XS-48" edge="1">
          <mxGeometry relative="1" as="geometry" />
        </mxCell>
        <mxCell id="-l0ttiXzIQIXAGMdB7XS-39" value="&lt;font style=&quot;font-size: 18px;&quot;&gt;classVarDec3&lt;/font&gt;" style="shape=ellipse;html=1;dashed=0;whiteSpace=wrap;aspect=fixed;perimeter=ellipsePerimeter;" parent="1" vertex="1">
          <mxGeometry x="-320" y="440" width="120" height="120" as="geometry" />
        </mxCell>
        <mxCell id="-l0ttiXzIQIXAGMdB7XS-41" value="&lt;font style=&quot;font-size: 18px;&quot;&gt;identifier&lt;br&gt;&lt;/font&gt;" style="text;html=1;strokeColor=none;fillColor=none;align=center;verticalAlign=middle;whiteSpace=wrap;rounded=0;" parent="1" vertex="1">
          <mxGeometry x="-410" y="460" width="70" height="40" as="geometry" />
        </mxCell>
        <mxCell id="-l0ttiXzIQIXAGMdB7XS-43" value="&lt;font style=&quot;font-size: 24px;&quot;&gt;;&lt;/font&gt;" style="text;html=1;strokeColor=none;fillColor=none;align=center;verticalAlign=middle;whiteSpace=wrap;rounded=0;" parent="1" vertex="1">
          <mxGeometry x="-140" y="460" width="70" height="40" as="geometry" />
        </mxCell>
        <mxCell id="-l0ttiXzIQIXAGMdB7XS-53" style="edgeStyle=orthogonalEdgeStyle;rounded=0;orthogonalLoop=1;jettySize=auto;html=1;exitX=1;exitY=0;exitDx=0;exitDy=0;entryX=1;entryY=1;entryDx=0;entryDy=0;" parent="1" source="-l0ttiXzIQIXAGMdB7XS-48" target="-l0ttiXzIQIXAGMdB7XS-39" edge="1">
          <mxGeometry relative="1" as="geometry" />
        </mxCell>
        <mxCell id="-l0ttiXzIQIXAGMdB7XS-48" value="&lt;font style=&quot;font-size: 18px;&quot;&gt;classVarDec3&lt;/font&gt;" style="shape=ellipse;html=1;dashed=0;whiteSpace=wrap;aspect=fixed;perimeter=ellipsePerimeter;" parent="1" vertex="1">
          <mxGeometry x="-320" y="640" width="120" height="120" as="geometry" />
        </mxCell>
        <mxCell id="-l0ttiXzIQIXAGMdB7XS-50" value="&lt;font style=&quot;font-size: 24px;&quot;&gt;,&lt;/font&gt;" style="text;html=1;strokeColor=none;fillColor=none;align=center;verticalAlign=middle;whiteSpace=wrap;rounded=0;" parent="1" vertex="1">
          <mxGeometry x="-285" y="570" width="70" height="40" as="geometry" />
        </mxCell>
        <mxCell id="-l0ttiXzIQIXAGMdB7XS-55" value="&lt;font style=&quot;font-size: 18px;&quot;&gt;identifier&lt;br&gt;&lt;/font&gt;" style="text;html=1;strokeColor=none;fillColor=none;align=center;verticalAlign=middle;whiteSpace=wrap;rounded=0;" parent="1" vertex="1">
          <mxGeometry x="-215" y="580" width="70" height="40" as="geometry" />
        </mxCell>
        <mxCell id="-l0ttiXzIQIXAGMdB7XS-86" style="edgeStyle=orthogonalEdgeStyle;rounded=0;orthogonalLoop=1;jettySize=auto;html=1;exitX=0;exitY=0.5;exitDx=0;exitDy=0;entryX=1;entryY=0.5;entryDx=0;entryDy=0;" parent="1" source="-l0ttiXzIQIXAGMdB7XS-63" target="-l0ttiXzIQIXAGMdB7XS-67" edge="1">
          <mxGeometry relative="1" as="geometry" />
        </mxCell>
        <mxCell id="-l0ttiXzIQIXAGMdB7XS-63" value="&lt;font style=&quot;font-size: 14px;&quot;&gt;subroutineDec2&lt;/font&gt;" style="shape=ellipse;html=1;dashed=0;whiteSpace=wrap;aspect=fixed;perimeter=ellipsePerimeter;" parent="1" vertex="1">
          <mxGeometry x="920" y="440" width="120" height="120" as="geometry" />
        </mxCell>
        <mxCell id="-l0ttiXzIQIXAGMdB7XS-66" value="&lt;font style=&quot;font-size: 18px;&quot;&gt;int, char,&lt;br&gt;boolean,&lt;br&gt;identifier,&lt;br&gt;void&lt;br&gt;&lt;/font&gt;" style="text;html=1;strokeColor=none;fillColor=none;align=center;verticalAlign=middle;whiteSpace=wrap;rounded=0;" parent="1" vertex="1">
          <mxGeometry x="1070" y="440" width="70" height="40" as="geometry" />
        </mxCell>
        <mxCell id="-l0ttiXzIQIXAGMdB7XS-87" style="edgeStyle=orthogonalEdgeStyle;rounded=0;orthogonalLoop=1;jettySize=auto;html=1;exitX=0;exitY=0.5;exitDx=0;exitDy=0;entryX=1;entryY=0.5;entryDx=0;entryDy=0;" parent="1" source="-l0ttiXzIQIXAGMdB7XS-67" target="-l0ttiXzIQIXAGMdB7XS-70" edge="1">
          <mxGeometry relative="1" as="geometry" />
        </mxCell>
        <mxCell id="-l0ttiXzIQIXAGMdB7XS-67" value="&lt;font style=&quot;font-size: 14px;&quot;&gt;subroutineDec3&lt;/font&gt;" style="shape=ellipse;html=1;dashed=0;whiteSpace=wrap;aspect=fixed;perimeter=ellipsePerimeter;" parent="1" vertex="1">
          <mxGeometry x="720" y="440" width="120" height="120" as="geometry" />
        </mxCell>
        <mxCell id="-l0ttiXzIQIXAGMdB7XS-69" value="&lt;font style=&quot;font-size: 18px;&quot;&gt;identifier&lt;br&gt;&lt;/font&gt;" style="text;html=1;strokeColor=none;fillColor=none;align=center;verticalAlign=middle;whiteSpace=wrap;rounded=0;" parent="1" vertex="1">
          <mxGeometry x="850" y="460" width="70" height="40" as="geometry" />
        </mxCell>
        <mxCell id="-l0ttiXzIQIXAGMdB7XS-94" style="edgeStyle=orthogonalEdgeStyle;rounded=0;orthogonalLoop=1;jettySize=auto;html=1;exitX=0.5;exitY=1;exitDx=0;exitDy=0;entryX=0.5;entryY=0;entryDx=0;entryDy=0;" parent="1" source="-l0ttiXzIQIXAGMdB7XS-70" target="-l0ttiXzIQIXAGMdB7XS-76" edge="1">
          <mxGeometry relative="1" as="geometry" />
        </mxCell>
        <mxCell id="-l0ttiXzIQIXAGMdB7XS-139" style="edgeStyle=orthogonalEdgeStyle;rounded=0;orthogonalLoop=1;jettySize=auto;html=1;exitX=0;exitY=0.5;exitDx=0;exitDy=0;entryX=1;entryY=0.5;entryDx=0;entryDy=0;" parent="1" source="-l0ttiXzIQIXAGMdB7XS-70" target="-l0ttiXzIQIXAGMdB7XS-138" edge="1">
          <mxGeometry relative="1" as="geometry" />
        </mxCell>
        <mxCell id="-l0ttiXzIQIXAGMdB7XS-70" value="&lt;font style=&quot;font-size: 14px;&quot;&gt;parameterList1&lt;/font&gt;" style="shape=ellipse;html=1;dashed=0;whiteSpace=wrap;aspect=fixed;perimeter=ellipsePerimeter;" parent="1" vertex="1">
          <mxGeometry x="520" y="440" width="120" height="120" as="geometry" />
        </mxCell>
        <mxCell id="-l0ttiXzIQIXAGMdB7XS-72" value="&lt;font style=&quot;font-size: 18px;&quot;&gt;(&lt;br&gt;&lt;/font&gt;" style="text;html=1;strokeColor=none;fillColor=none;align=center;verticalAlign=middle;whiteSpace=wrap;rounded=0;" parent="1" vertex="1">
          <mxGeometry x="640" y="460" width="70" height="40" as="geometry" />
        </mxCell>
        <mxCell id="-l0ttiXzIQIXAGMdB7XS-101" style="edgeStyle=orthogonalEdgeStyle;rounded=0;orthogonalLoop=1;jettySize=auto;html=1;exitX=0.5;exitY=1;exitDx=0;exitDy=0;entryX=0.5;entryY=0;entryDx=0;entryDy=0;" parent="1" source="-l0ttiXzIQIXAGMdB7XS-76" target="-l0ttiXzIQIXAGMdB7XS-100" edge="1">
          <mxGeometry relative="1" as="geometry" />
        </mxCell>
        <mxCell id="-l0ttiXzIQIXAGMdB7XS-76" value="&lt;font style=&quot;font-size: 14px;&quot;&gt;parameterList2&lt;/font&gt;" style="shape=ellipse;html=1;dashed=0;whiteSpace=wrap;aspect=fixed;perimeter=ellipsePerimeter;" parent="1" vertex="1">
          <mxGeometry x="520" y="640" width="120" height="120" as="geometry" />
        </mxCell>
        <mxCell id="-l0ttiXzIQIXAGMdB7XS-78" value="&lt;font style=&quot;font-size: 18px;&quot;&gt;)&lt;br&gt;&lt;/font&gt;" style="text;html=1;strokeColor=none;fillColor=none;align=center;verticalAlign=middle;whiteSpace=wrap;rounded=0;" parent="1" vertex="1">
          <mxGeometry x="420" y="450" width="70" height="40" as="geometry" />
        </mxCell>
        <mxCell id="-l0ttiXzIQIXAGMdB7XS-81" value="&lt;font style=&quot;font-size: 18px;&quot;&gt;int, char,&lt;br&gt;boolean,&lt;br&gt;identifier&lt;br&gt;&lt;/font&gt;" style="text;html=1;strokeColor=none;fillColor=none;align=center;verticalAlign=middle;whiteSpace=wrap;rounded=0;" parent="1" vertex="1">
          <mxGeometry x="510" y="580" width="70" height="40" as="geometry" />
        </mxCell>
        <mxCell id="-l0ttiXzIQIXAGMdB7XS-117" style="edgeStyle=orthogonalEdgeStyle;rounded=0;orthogonalLoop=1;jettySize=auto;html=1;exitX=1;exitY=0.5;exitDx=0;exitDy=0;entryX=0;entryY=0.5;entryDx=0;entryDy=0;" parent="1" source="-l0ttiXzIQIXAGMdB7XS-100" target="-l0ttiXzIQIXAGMdB7XS-111" edge="1">
          <mxGeometry relative="1" as="geometry" />
        </mxCell>
        <mxCell id="-l0ttiXzIQIXAGMdB7XS-140" style="edgeStyle=orthogonalEdgeStyle;rounded=0;orthogonalLoop=1;jettySize=auto;html=1;exitX=0;exitY=0.5;exitDx=0;exitDy=0;entryX=1;entryY=0.5;entryDx=0;entryDy=0;" parent="1" source="-l0ttiXzIQIXAGMdB7XS-100" target="-l0ttiXzIQIXAGMdB7XS-138" edge="1">
          <mxGeometry relative="1" as="geometry" />
        </mxCell>
        <mxCell id="-l0ttiXzIQIXAGMdB7XS-100" value="&lt;font style=&quot;font-size: 14px;&quot;&gt;parameterList3&lt;/font&gt;" style="shape=ellipse;html=1;dashed=0;whiteSpace=wrap;aspect=fixed;perimeter=ellipsePerimeter;" parent="1" vertex="1">
          <mxGeometry x="520" y="840" width="120" height="120" as="geometry" />
        </mxCell>
        <mxCell id="-l0ttiXzIQIXAGMdB7XS-102" value="&lt;font style=&quot;font-size: 18px;&quot;&gt;identifier&lt;br&gt;&lt;/font&gt;" style="text;html=1;strokeColor=none;fillColor=none;align=center;verticalAlign=middle;whiteSpace=wrap;rounded=0;" parent="1" vertex="1">
          <mxGeometry x="510" y="780" width="70" height="40" as="geometry" />
        </mxCell>
        <mxCell id="-l0ttiXzIQIXAGMdB7XS-110" value="&lt;font style=&quot;font-size: 18px;&quot;&gt;)&lt;br&gt;&lt;/font&gt;" style="text;html=1;strokeColor=none;fillColor=none;align=center;verticalAlign=middle;whiteSpace=wrap;rounded=0;" parent="1" vertex="1">
          <mxGeometry x="440" y="860" width="70" height="40" as="geometry" />
        </mxCell>
        <mxCell id="-l0ttiXzIQIXAGMdB7XS-120" style="edgeStyle=orthogonalEdgeStyle;rounded=0;orthogonalLoop=1;jettySize=auto;html=1;exitX=1;exitY=0.5;exitDx=0;exitDy=0;entryX=0;entryY=0.5;entryDx=0;entryDy=0;" parent="1" source="-l0ttiXzIQIXAGMdB7XS-111" target="-l0ttiXzIQIXAGMdB7XS-119" edge="1">
          <mxGeometry relative="1" as="geometry" />
        </mxCell>
        <mxCell id="-l0ttiXzIQIXAGMdB7XS-111" value="&lt;font style=&quot;font-size: 14px;&quot;&gt;parameterList4&lt;/font&gt;" style="shape=ellipse;html=1;dashed=0;whiteSpace=wrap;aspect=fixed;perimeter=ellipsePerimeter;" parent="1" vertex="1">
          <mxGeometry x="760" y="840" width="120" height="120" as="geometry" />
        </mxCell>
        <mxCell id="-l0ttiXzIQIXAGMdB7XS-118" value="&lt;font style=&quot;&quot;&gt;&lt;font style=&quot;font-size: 24px;&quot;&gt;,&lt;/font&gt;&lt;br&gt;&lt;/font&gt;" style="text;html=1;strokeColor=none;fillColor=none;align=center;verticalAlign=middle;whiteSpace=wrap;rounded=0;" parent="1" vertex="1">
          <mxGeometry x="660" y="860" width="70" height="40" as="geometry" />
        </mxCell>
        <mxCell id="-l0ttiXzIQIXAGMdB7XS-121" style="edgeStyle=orthogonalEdgeStyle;rounded=0;orthogonalLoop=1;jettySize=auto;html=1;exitX=0.5;exitY=0;exitDx=0;exitDy=0;entryX=1;entryY=0;entryDx=0;entryDy=0;" parent="1" source="-l0ttiXzIQIXAGMdB7XS-119" target="-l0ttiXzIQIXAGMdB7XS-100" edge="1">
          <mxGeometry relative="1" as="geometry">
            <Array as="points">
              <mxPoint x="1060" y="800" />
              <mxPoint x="622" y="800" />
            </Array>
          </mxGeometry>
        </mxCell>
        <mxCell id="-l0ttiXzIQIXAGMdB7XS-119" value="&lt;font style=&quot;font-size: 14px;&quot;&gt;parameterList5&lt;/font&gt;" style="shape=ellipse;html=1;dashed=0;whiteSpace=wrap;aspect=fixed;perimeter=ellipsePerimeter;" parent="1" vertex="1">
          <mxGeometry x="1000" y="840" width="120" height="120" as="geometry" />
        </mxCell>
        <mxCell id="-l0ttiXzIQIXAGMdB7XS-123" value="&lt;font style=&quot;font-size: 18px;&quot;&gt;int, char,&lt;br&gt;boolean,&lt;br&gt;identifier&lt;br&gt;&lt;/font&gt;" style="text;html=1;strokeColor=none;fillColor=none;align=center;verticalAlign=middle;whiteSpace=wrap;rounded=0;" parent="1" vertex="1">
          <mxGeometry x="900" y="850" width="70" height="40" as="geometry" />
        </mxCell>
        <mxCell id="-l0ttiXzIQIXAGMdB7XS-124" value="&lt;font style=&quot;font-size: 18px;&quot;&gt;identifier&lt;br&gt;&lt;/font&gt;" style="text;html=1;strokeColor=none;fillColor=none;align=center;verticalAlign=middle;whiteSpace=wrap;rounded=0;" parent="1" vertex="1">
          <mxGeometry x="810" y="760" width="70" height="40" as="geometry" />
        </mxCell>
        <mxCell id="WpT0CBNmdev07JmLGQnk-22" style="edgeStyle=orthogonalEdgeStyle;rounded=0;orthogonalLoop=1;jettySize=auto;html=1;exitX=0;exitY=0.5;exitDx=0;exitDy=0;entryX=1;entryY=0.5;entryDx=0;entryDy=0;" edge="1" parent="1" source="-l0ttiXzIQIXAGMdB7XS-138" target="-l0ttiXzIQIXAGMdB7XS-141">
          <mxGeometry relative="1" as="geometry" />
        </mxCell>
        <mxCell id="-l0ttiXzIQIXAGMdB7XS-138" value="&lt;font style=&quot;font-size: 14px;&quot;&gt;subroutineBody1&lt;/font&gt;" style="shape=ellipse;html=1;dashed=0;whiteSpace=wrap;aspect=fixed;perimeter=ellipsePerimeter;" parent="1" vertex="1">
          <mxGeometry x="280" y="440" width="120" height="120" as="geometry" />
        </mxCell>
        <mxCell id="WpT0CBNmdev07JmLGQnk-25" style="edgeStyle=orthogonalEdgeStyle;rounded=0;orthogonalLoop=1;jettySize=auto;html=1;exitX=0;exitY=0.5;exitDx=0;exitDy=0;" edge="1" parent="1" source="-l0ttiXzIQIXAGMdB7XS-141">
          <mxGeometry relative="1" as="geometry">
            <mxPoint x="60" y="320" as="targetPoint" />
          </mxGeometry>
        </mxCell>
        <mxCell id="WpT0CBNmdev07JmLGQnk-27" style="edgeStyle=orthogonalEdgeStyle;rounded=0;orthogonalLoop=1;jettySize=auto;html=1;exitX=0;exitY=1;exitDx=0;exitDy=0;entryX=0.5;entryY=0;entryDx=0;entryDy=0;" edge="1" parent="1" source="-l0ttiXzIQIXAGMdB7XS-141" target="-l0ttiXzIQIXAGMdB7XS-144">
          <mxGeometry relative="1" as="geometry" />
        </mxCell>
        <mxCell id="WpT0CBNmdev07JmLGQnk-36" style="edgeStyle=orthogonalEdgeStyle;rounded=0;orthogonalLoop=1;jettySize=auto;html=1;exitX=0.5;exitY=1;exitDx=0;exitDy=0;entryX=0;entryY=0.5;entryDx=0;entryDy=0;" edge="1" parent="1" source="-l0ttiXzIQIXAGMdB7XS-141" target="WpT0CBNmdev07JmLGQnk-29">
          <mxGeometry relative="1" as="geometry">
            <mxPoint x="190" y="1100" as="targetPoint" />
          </mxGeometry>
        </mxCell>
        <mxCell id="WpT0CBNmdev07JmLGQnk-38" style="edgeStyle=orthogonalEdgeStyle;rounded=0;orthogonalLoop=1;jettySize=auto;html=1;exitX=0.5;exitY=1;exitDx=0;exitDy=0;entryX=0;entryY=0.5;entryDx=0;entryDy=0;" edge="1" parent="1" source="-l0ttiXzIQIXAGMdB7XS-141" target="WpT0CBNmdev07JmLGQnk-32">
          <mxGeometry relative="1" as="geometry" />
        </mxCell>
        <mxCell id="WpT0CBNmdev07JmLGQnk-40" style="edgeStyle=orthogonalEdgeStyle;rounded=0;orthogonalLoop=1;jettySize=auto;html=1;exitX=0.5;exitY=1;exitDx=0;exitDy=0;entryX=0;entryY=0.5;entryDx=0;entryDy=0;" edge="1" parent="1" source="-l0ttiXzIQIXAGMdB7XS-141" target="WpT0CBNmdev07JmLGQnk-33">
          <mxGeometry relative="1" as="geometry" />
        </mxCell>
        <mxCell id="WpT0CBNmdev07JmLGQnk-42" style="edgeStyle=orthogonalEdgeStyle;rounded=0;orthogonalLoop=1;jettySize=auto;html=1;exitX=0.5;exitY=1;exitDx=0;exitDy=0;entryX=0;entryY=0.5;entryDx=0;entryDy=0;" edge="1" parent="1" source="-l0ttiXzIQIXAGMdB7XS-141" target="WpT0CBNmdev07JmLGQnk-34">
          <mxGeometry relative="1" as="geometry" />
        </mxCell>
        <mxCell id="WpT0CBNmdev07JmLGQnk-44" style="edgeStyle=orthogonalEdgeStyle;rounded=0;orthogonalLoop=1;jettySize=auto;html=1;exitX=0.5;exitY=1;exitDx=0;exitDy=0;entryX=0;entryY=0.5;entryDx=0;entryDy=0;" edge="1" parent="1" source="-l0ttiXzIQIXAGMdB7XS-141" target="WpT0CBNmdev07JmLGQnk-35">
          <mxGeometry relative="1" as="geometry" />
        </mxCell>
        <mxCell id="-l0ttiXzIQIXAGMdB7XS-141" value="&lt;font style=&quot;font-size: 14px;&quot;&gt;subroutineBody2&lt;/font&gt;" style="shape=ellipse;html=1;dashed=0;whiteSpace=wrap;aspect=fixed;perimeter=ellipsePerimeter;" parent="1" vertex="1">
          <mxGeometry x="120" y="440" width="120" height="120" as="geometry" />
        </mxCell>
        <mxCell id="-l0ttiXzIQIXAGMdB7XS-143" value="&lt;font style=&quot;font-size: 18px;&quot;&gt;{&lt;br&gt;&lt;/font&gt;" style="text;html=1;strokeColor=none;fillColor=none;align=center;verticalAlign=middle;whiteSpace=wrap;rounded=0;" parent="1" vertex="1">
          <mxGeometry x="220" y="460" width="70" height="40" as="geometry" />
        </mxCell>
        <mxCell id="WpT0CBNmdev07JmLGQnk-4" style="edgeStyle=orthogonalEdgeStyle;rounded=0;orthogonalLoop=1;jettySize=auto;html=1;exitX=0.5;exitY=1;exitDx=0;exitDy=0;entryX=0.5;entryY=0;entryDx=0;entryDy=0;" edge="1" parent="1" source="-l0ttiXzIQIXAGMdB7XS-144" target="WpT0CBNmdev07JmLGQnk-3">
          <mxGeometry relative="1" as="geometry" />
        </mxCell>
        <mxCell id="-l0ttiXzIQIXAGMdB7XS-144" value="&lt;font style=&quot;font-size: 14px;&quot;&gt;varDec1&lt;/font&gt;" style="shape=ellipse;html=1;dashed=0;whiteSpace=wrap;aspect=fixed;perimeter=ellipsePerimeter;" parent="1" vertex="1">
          <mxGeometry x="-40" y="600" width="120" height="120" as="geometry" />
        </mxCell>
        <mxCell id="WpT0CBNmdev07JmLGQnk-2" value="&lt;font style=&quot;font-size: 18px;&quot;&gt;var&lt;br&gt;&lt;/font&gt;" style="text;html=1;strokeColor=none;fillColor=none;align=center;verticalAlign=middle;whiteSpace=wrap;rounded=0;" vertex="1" parent="1">
          <mxGeometry x="-40" y="550" width="70" height="40" as="geometry" />
        </mxCell>
        <mxCell id="WpT0CBNmdev07JmLGQnk-7" value="" style="edgeStyle=orthogonalEdgeStyle;rounded=0;orthogonalLoop=1;jettySize=auto;html=1;" edge="1" parent="1" source="WpT0CBNmdev07JmLGQnk-3" target="WpT0CBNmdev07JmLGQnk-6">
          <mxGeometry relative="1" as="geometry" />
        </mxCell>
        <mxCell id="WpT0CBNmdev07JmLGQnk-3" value="&lt;font style=&quot;font-size: 14px;&quot;&gt;varDec2&lt;/font&gt;" style="shape=ellipse;html=1;dashed=0;whiteSpace=wrap;aspect=fixed;perimeter=ellipsePerimeter;" vertex="1" parent="1">
          <mxGeometry x="-40" y="800" width="120" height="120" as="geometry" />
        </mxCell>
        <mxCell id="WpT0CBNmdev07JmLGQnk-5" value="&lt;font style=&quot;font-size: 18px;&quot;&gt;int, char,&lt;br&gt;boolean,&lt;br&gt;identifier&lt;br&gt;&lt;/font&gt;" style="text;html=1;strokeColor=none;fillColor=none;align=center;verticalAlign=middle;whiteSpace=wrap;rounded=0;" vertex="1" parent="1">
          <mxGeometry x="-50" y="740" width="70" height="40" as="geometry" />
        </mxCell>
        <mxCell id="WpT0CBNmdev07JmLGQnk-18" style="edgeStyle=orthogonalEdgeStyle;rounded=0;orthogonalLoop=1;jettySize=auto;html=1;exitX=1;exitY=1;exitDx=0;exitDy=0;entryX=1;entryY=0;entryDx=0;entryDy=0;" edge="1" parent="1" source="WpT0CBNmdev07JmLGQnk-6" target="WpT0CBNmdev07JmLGQnk-9">
          <mxGeometry relative="1" as="geometry" />
        </mxCell>
        <mxCell id="WpT0CBNmdev07JmLGQnk-28" style="edgeStyle=orthogonalEdgeStyle;rounded=0;orthogonalLoop=1;jettySize=auto;html=1;exitX=1;exitY=0.5;exitDx=0;exitDy=0;entryX=0;entryY=1;entryDx=0;entryDy=0;" edge="1" parent="1" source="WpT0CBNmdev07JmLGQnk-6" target="-l0ttiXzIQIXAGMdB7XS-141">
          <mxGeometry relative="1" as="geometry" />
        </mxCell>
        <mxCell id="WpT0CBNmdev07JmLGQnk-6" value="&lt;font style=&quot;font-size: 14px;&quot;&gt;varDec3&lt;br&gt;&lt;/font&gt;" style="shape=ellipse;html=1;dashed=0;whiteSpace=wrap;aspect=fixed;perimeter=ellipsePerimeter;" vertex="1" parent="1">
          <mxGeometry x="-40" y="1000" width="120" height="120" as="geometry" />
        </mxCell>
        <mxCell id="WpT0CBNmdev07JmLGQnk-8" value="&lt;font style=&quot;font-size: 18px;&quot;&gt;identifier&lt;br&gt;&lt;/font&gt;" style="text;html=1;strokeColor=none;fillColor=none;align=center;verticalAlign=middle;whiteSpace=wrap;rounded=0;" vertex="1" parent="1">
          <mxGeometry x="-55" y="940" width="70" height="40" as="geometry" />
        </mxCell>
        <mxCell id="WpT0CBNmdev07JmLGQnk-9" value="&lt;font style=&quot;font-size: 14px;&quot;&gt;varDec4&lt;/font&gt;" style="shape=ellipse;html=1;dashed=0;whiteSpace=wrap;aspect=fixed;perimeter=ellipsePerimeter;" vertex="1" parent="1">
          <mxGeometry x="-40" y="1200" width="120" height="120" as="geometry" />
        </mxCell>
        <mxCell id="WpT0CBNmdev07JmLGQnk-11" value="&lt;font style=&quot;&quot;&gt;&lt;font style=&quot;font-size: 24px;&quot;&gt;,&lt;/font&gt;&lt;br&gt;&lt;/font&gt;" style="text;html=1;strokeColor=none;fillColor=none;align=center;verticalAlign=middle;whiteSpace=wrap;rounded=0;" vertex="1" parent="1">
          <mxGeometry x="60" y="1130" width="70" height="40" as="geometry" />
        </mxCell>
        <mxCell id="WpT0CBNmdev07JmLGQnk-13" value="&lt;font style=&quot;font-size: 18px;&quot;&gt;identifier&lt;br&gt;&lt;/font&gt;" style="text;html=1;strokeColor=none;fillColor=none;align=center;verticalAlign=middle;whiteSpace=wrap;rounded=0;" vertex="1" parent="1">
          <mxGeometry x="-100" y="1140" width="70" height="40" as="geometry" />
        </mxCell>
        <mxCell id="WpT0CBNmdev07JmLGQnk-17" value="&lt;font style=&quot;font-size: 24px;&quot;&gt;;&lt;/font&gt;" style="text;html=1;strokeColor=none;fillColor=none;align=center;verticalAlign=middle;whiteSpace=wrap;rounded=0;" vertex="1" parent="1">
          <mxGeometry x="70" y="1020" width="70" height="40" as="geometry" />
        </mxCell>
        <mxCell id="WpT0CBNmdev07JmLGQnk-19" style="edgeStyle=orthogonalEdgeStyle;rounded=0;orthogonalLoop=1;jettySize=auto;html=1;exitX=0;exitY=0;exitDx=0;exitDy=0;entryX=0.143;entryY=0.923;entryDx=0;entryDy=0;entryPerimeter=0;" edge="1" parent="1" source="WpT0CBNmdev07JmLGQnk-9" target="WpT0CBNmdev07JmLGQnk-6">
          <mxGeometry relative="1" as="geometry" />
        </mxCell>
        <mxCell id="WpT0CBNmdev07JmLGQnk-26" value="&lt;font style=&quot;font-size: 18px;&quot;&gt;}&lt;br&gt;&lt;/font&gt;" style="text;html=1;strokeColor=none;fillColor=none;align=center;verticalAlign=middle;whiteSpace=wrap;rounded=0;" vertex="1" parent="1">
          <mxGeometry x="50" y="460" width="70" height="40" as="geometry" />
        </mxCell>
        <mxCell id="WpT0CBNmdev07JmLGQnk-29" value="&lt;font style=&quot;font-size: 14px;&quot;&gt;letstatement1&lt;/font&gt;" style="shape=ellipse;html=1;dashed=0;whiteSpace=wrap;aspect=fixed;perimeter=ellipsePerimeter;" vertex="1" parent="1">
          <mxGeometry x="320" y="1040" width="120" height="120" as="geometry" />
        </mxCell>
        <mxCell id="WpT0CBNmdev07JmLGQnk-32" value="&lt;span style=&quot;font-size: 14px;&quot;&gt;ifstatement1&lt;/span&gt;" style="shape=ellipse;html=1;dashed=0;whiteSpace=wrap;aspect=fixed;perimeter=ellipsePerimeter;" vertex="1" parent="1">
          <mxGeometry x="320" y="1240" width="120" height="120" as="geometry" />
        </mxCell>
        <mxCell id="WpT0CBNmdev07JmLGQnk-33" value="&lt;span style=&quot;font-size: 14px;&quot;&gt;whilestatement1&lt;/span&gt;" style="shape=ellipse;html=1;dashed=0;whiteSpace=wrap;aspect=fixed;perimeter=ellipsePerimeter;" vertex="1" parent="1">
          <mxGeometry x="320" y="1440" width="120" height="120" as="geometry" />
        </mxCell>
        <mxCell id="WpT0CBNmdev07JmLGQnk-34" value="&lt;span style=&quot;font-size: 14px;&quot;&gt;dostatement1&lt;/span&gt;" style="shape=ellipse;html=1;dashed=0;whiteSpace=wrap;aspect=fixed;perimeter=ellipsePerimeter;" vertex="1" parent="1">
          <mxGeometry x="320" y="1640" width="120" height="120" as="geometry" />
        </mxCell>
        <mxCell id="WpT0CBNmdev07JmLGQnk-50" style="edgeStyle=orthogonalEdgeStyle;rounded=0;orthogonalLoop=1;jettySize=auto;html=1;exitX=0;exitY=0;exitDx=0;exitDy=0;entryX=1;entryY=1;entryDx=0;entryDy=0;" edge="1" parent="1" source="WpT0CBNmdev07JmLGQnk-35" target="-l0ttiXzIQIXAGMdB7XS-141">
          <mxGeometry relative="1" as="geometry" />
        </mxCell>
        <mxCell id="WpT0CBNmdev07JmLGQnk-35" value="&lt;span style=&quot;font-size: 14px;&quot;&gt;returnstatement1&lt;/span&gt;" style="shape=ellipse;html=1;dashed=0;whiteSpace=wrap;aspect=fixed;perimeter=ellipsePerimeter;" vertex="1" parent="1">
          <mxGeometry x="320" y="1840" width="120" height="120" as="geometry" />
        </mxCell>
        <mxCell id="WpT0CBNmdev07JmLGQnk-37" value="&lt;font style=&quot;font-size: 18px;&quot;&gt;let&lt;br&gt;&lt;/font&gt;" style="text;html=1;strokeColor=none;fillColor=none;align=center;verticalAlign=middle;whiteSpace=wrap;rounded=0;" vertex="1" parent="1">
          <mxGeometry x="260" y="1100" width="70" height="40" as="geometry" />
        </mxCell>
        <mxCell id="WpT0CBNmdev07JmLGQnk-39" value="&lt;font style=&quot;font-size: 18px;&quot;&gt;if&lt;br&gt;&lt;/font&gt;" style="text;html=1;strokeColor=none;fillColor=none;align=center;verticalAlign=middle;whiteSpace=wrap;rounded=0;" vertex="1" parent="1">
          <mxGeometry x="250" y="1300" width="70" height="40" as="geometry" />
        </mxCell>
        <mxCell id="WpT0CBNmdev07JmLGQnk-41" value="&lt;font style=&quot;font-size: 18px;&quot;&gt;while&lt;br&gt;&lt;/font&gt;" style="text;html=1;strokeColor=none;fillColor=none;align=center;verticalAlign=middle;whiteSpace=wrap;rounded=0;" vertex="1" parent="1">
          <mxGeometry x="250" y="1500" width="70" height="40" as="geometry" />
        </mxCell>
        <mxCell id="WpT0CBNmdev07JmLGQnk-43" value="&lt;font style=&quot;font-size: 18px;&quot;&gt;do&lt;br&gt;&lt;/font&gt;" style="text;html=1;strokeColor=none;fillColor=none;align=center;verticalAlign=middle;whiteSpace=wrap;rounded=0;" vertex="1" parent="1">
          <mxGeometry x="250" y="1700" width="70" height="40" as="geometry" />
        </mxCell>
        <mxCell id="WpT0CBNmdev07JmLGQnk-45" value="&lt;font style=&quot;font-size: 18px;&quot;&gt;return&lt;br&gt;&lt;/font&gt;" style="text;html=1;strokeColor=none;fillColor=none;align=center;verticalAlign=middle;whiteSpace=wrap;rounded=0;" vertex="1" parent="1">
          <mxGeometry x="240" y="1900" width="70" height="40" as="geometry" />
        </mxCell>
        <mxCell id="WpT0CBNmdev07JmLGQnk-48" value="&lt;font style=&quot;font-size: 18px;&quot;&gt;;&lt;br&gt;&lt;/font&gt;" style="text;html=1;strokeColor=none;fillColor=none;align=center;verticalAlign=middle;whiteSpace=wrap;rounded=0;" vertex="1" parent="1">
          <mxGeometry x="240" y="1820" width="70" height="40" as="geometry" />
        </mxCell>
      </root>
    </mxGraphModel>
  </diagram>
</mxfile>
